<?xml version="1.0" encoding="utf-8"?>
<!-- Generator: Adobe Illustrator 18.1.1, SVG Export Plug-In . SVG Version: 6.00 Build 0)  -->
<svg version="1.1" id="Layer_1" xmlns="http://www.w3.org/2000/svg" xmlns:xlink="http://www.w3.org/1999/xlink" x="0px" y="0px"
	 viewBox="0 0 727 209" enable-background="new 0 0 727 209" xml:space="preserve">
<g>
	<path fill="#FFFFFF" d="M202.8,63.5h14.6v9.9c2.1-3.1,4.7-5.7,7.9-7.9c3.1-2.2,7.2-3.3,12.1-3.3c7.3,0,12.9,2.2,16.8,6.7
		c4,4.4,5.9,10.4,5.9,17.9v40.7h-14.6V91.1c0-5-1.2-8.9-3.6-11.6c-2.4-2.7-5.7-4.1-10.1-4.1c-4.3,0-7.7,1.4-10.4,4.2
		c-2.7,2.8-4,6.7-4,11.7v36.1h-14.6V63.5z"/>
	<path fill="#FFFFFF" d="M299.2,128.5c-2.7,0-5.1-0.3-7.4-1c-2.3-0.6-4.2-1.7-5.9-3.1c-1.7-1.5-2.9-3.4-3.8-5.8
		c-0.9-2.4-1.3-5.4-1.3-8.8V76.1h-8.1V63.5h8.1V46h14.6v17.5h17.2v12.6h-17.2v31.3c0,2.8,0.7,4.9,2.1,6.1c1.4,1.3,3.3,1.9,5.8,1.9
		c3.1,0,6.2-0.7,9.1-2.2v12c-1.9,1-3.8,1.9-5.9,2.4C304.4,128.2,302,128.5,299.2,128.5z"/>
	<path fill="#FFFFFF" d="M327.7,39.8h15.7v13.9h-15.7V39.8z M328.3,63.5h14.6v63.9h-14.6V63.5z"/>
	<path fill="#FFFFFF" d="M362,63.5h14.6v9.9c2.1-3.1,4.7-5.7,7.9-7.9c3.1-2.2,7.2-3.3,12.1-3.3c7.3,0,12.9,2.2,16.8,6.7
		c4,4.4,5.9,10.4,5.9,17.9v40.7h-14.6V91.1c0-5-1.2-8.9-3.6-11.6c-2.4-2.7-5.7-4.1-10.1-4.1c-4.3,0-7.7,1.4-10.4,4.2
		c-2.7,2.8-4,6.7-4,11.7v36.1H362V63.5z"/>
	<path fill="#FFFFFF" d="M459.1,128.8c-7.3,0-12.9-2.2-16.8-6.7c-4-4.4-5.9-10.4-5.9-17.9V63.5H451v36.3c0,5,1.2,8.9,3.6,11.6
		c2.4,2.7,5.7,4.1,10.1,4.1c4.3,0,7.7-1.4,10.4-4.2c2.7-2.8,4-6.7,4-11.7V63.5h14.6v63.9H479v-9.9c-1,1.5-2.2,3-3.4,4.3
		c-1.3,1.3-2.7,2.5-4.4,3.6c-1.7,1-3.5,1.9-5.4,2.5C463.8,128.4,461.6,128.8,459.1,128.8z"/>
	<path fill="#FFFFFF" d="M534.1,128.8c-7.3,0-12.9-2.2-16.8-6.7c-4-4.4-5.9-10.4-5.9-17.9V63.5H526v36.3c0,5,1.2,8.9,3.6,11.6
		c2.4,2.7,5.7,4.1,10.1,4.1c4.3,0,7.7-1.4,10.4-4.2c2.7-2.8,4-6.7,4-11.7V63.5h14.6v63.9h-14.6v-9.9c-1,1.5-2.2,3-3.4,4.3
		c-1.2,1.3-2.7,2.5-4.4,3.6c-1.7,1-3.5,1.9-5.4,2.5C538.8,128.4,536.6,128.8,534.1,128.8z"/>
	<path fill="#FFFFFF" d="M587.1,63.5h14.6v9.7c1-1.5,2.2-2.8,3.4-4.1c1.2-1.3,2.6-2.5,4.2-3.5c1.6-1,3.3-1.9,5.3-2.5
		c2-0.6,4.2-0.9,6.6-0.9c4.6,0,8.5,1,11.7,3.1c3.2,2.1,5.6,4.8,7.3,8.2c2.6-3.4,5.6-6.1,9.1-8.2c3.5-2.1,7.7-3.1,12.5-3.1
		c7,0,12.5,2.1,16.5,6.4c4,4.2,5.9,10.3,5.9,18.1v40.8h-14.6V91.1c0-5.1-1.1-9-3.4-11.6c-2.3-2.7-5.4-4-9.6-4c-4,0-7.3,1.4-9.9,4.1
		c-2.5,2.7-3.8,6.6-3.8,11.8v36.1h-14.6V91c0-5-1.1-8.8-3.4-11.5c-2.3-2.7-5.4-4-9.6-4c-4.1,0-7.4,1.4-9.9,4.2
		c-2.5,2.8-3.8,6.7-3.8,11.7v35.9h-14.6V63.5z"/>
</g>
<path fill="#FFFFFF" d="M192.2,77c-1.9-4.7-4.6-8.8-8-12.2c-3.4-3.5-7.5-6.2-12.2-8.2c-4.7-2-9.8-3-15.3-3c-3.6,0-6.9,0.3-9.8,0.9
	c-2.9,0.6-5.6,1.5-8.1,2.7c-2.5,1.2-4.7,2.6-6.8,4.2c-2.1,1.6-4.1,3.5-6,5.6l10.5,10.6c2.9-2.6,5.9-4.8,8.8-6.4
	c3-1.6,6.6-2.4,10.9-2.4c3.2,0,6.2,0.6,8.8,1.9c2.7,1.2,5,2.9,6.8,5.1c1.9,2.1,3.4,4.6,4.4,7.5c1.1,2.9,1.6,5.9,1.6,9.1v0.2
	c0,3.2-0.5,6.2-1.6,9c-1.1,2.8-2.6,5.3-4.5,7.4c-1.9,2.1-4.2,3.8-6.9,5c-2.7,1.2-5.6,1.8-8.7,1.8c-3.8,0-7.2-0.7-10.2-2.2
	c-3-1.5-6-3.6-8.9-6.2l-0.3-0.3l-37.2-42c-1.7-1.7-3.6-3.3-5.6-4.7c-2-1.4-4.2-2.6-6.5-3.6c-2.4-1-5-1.8-7.8-2.4
	c-2.9-0.6-6.1-0.9-9.6-0.9c-5.8,0-11.1,1-15.8,3c-4.8,2-8.9,4.8-12.3,8.3c-3.4,3.5-6.1,7.6-8,12.3c-1.9,4.7-2.9,9.7-2.9,15v0.2
	c0,5.3,1,10.4,2.9,15.1c1.9,4.7,4.6,8.8,8,12.2c3.4,3.5,7.5,6.2,12.2,8.2c4.7,2,9.8,3,15.3,3c3.6,0,6.9-0.3,9.8-0.9
	c2.9-0.6,5.6-1.5,8.1-2.7c2.5-1.2,4.7-2.6,6.8-4.2c2.1-1.6,4.1-3.5,6-5.6L89.5,107c-2.9,2.6-5.9,4.8-8.8,6.4
	c-3,1.6-6.6,2.4-10.9,2.4c-3.2,0-6.2-0.6-8.8-1.9c-2.7-1.2-5-2.9-6.8-5.1c-1.9-2.1-3.4-4.6-4.4-7.5c-1.1-2.9-1.6-5.9-1.6-9.1V92
	c0-3.2,0.5-6.2,1.6-9c1.1-2.8,2.6-5.3,4.5-7.4c1.9-2.1,4.2-3.8,6.9-5c2.7-1.2,5.6-1.8,8.7-1.8c3.8,0,7.2,0.8,10.2,2.2
	c3,1.5,6,3.6,8.9,6.2l37.5,42.3c1.7,1.7,3.6,3.3,5.6,4.7c2,1.4,4.2,2.6,6.5,3.6c2.4,1,5,1.8,7.8,2.4c2.9,0.6,6.1,0.9,9.6,0.9
	c5.8,0,11.1-1,15.8-3c4.8-2,8.9-4.8,12.3-8.3c3.4-3.5,6.1-7.6,8-12.3c1.9-4.7,2.9-9.7,2.9-15V92C195.1,86.7,194.1,81.7,192.2,77z"/>
<g>
	<path fill="#FFFFFF" d="M67.9,154.9h-7.3v-1.4h16.2v1.4h-7.3v19.6h-1.6V154.9z"/>
	<path fill="#FFFFFF" d="M81.6,153.5h1.6v9.8h13.4v-9.8h1.6v21h-1.6v-9.8H83.1v9.8h-1.6V153.5z"/>
	<path fill="#FFFFFF" d="M104.4,153.5h14.9v1.4h-13.4v8.3h12v1.4h-12v8.5h13.5v1.4h-15.1V153.5z"/>
	<path fill="#FFFFFF" d="M141.4,153.4h1.5l9.8,21.1H151l-2.7-5.9H136l-2.7,5.9h-1.6L141.4,153.4z M147.7,167.2l-5.5-12.2l-5.6,12.2
		H147.7z"/>
	<path fill="#FFFFFF" d="M163.8,174.8c-1.7,0-3.2-0.3-4.5-0.8c-1.3-0.6-2.7-1.4-3.9-2.5l1-1.2c0.6,0.5,1.2,1,1.7,1.4
		c0.6,0.4,1.2,0.7,1.8,1c0.6,0.3,1.2,0.4,1.9,0.6c0.7,0.1,1.4,0.2,2.2,0.2c0.8,0,1.5-0.1,2.2-0.3c0.7-0.2,1.2-0.5,1.7-0.9
		c0.5-0.4,0.8-0.8,1.1-1.3c0.3-0.5,0.4-1.1,0.4-1.7v-0.1c0-0.6-0.1-1.1-0.3-1.5c-0.2-0.4-0.5-0.8-0.9-1.2c-0.5-0.4-1.1-0.7-1.8-1
		c-0.8-0.3-1.7-0.6-2.9-0.8c-1.3-0.3-2.3-0.6-3.2-0.9c-0.9-0.3-1.6-0.8-2.2-1.2c-0.6-0.5-1-1-1.3-1.6c-0.3-0.6-0.4-1.3-0.4-2.1v-0.1
		c0-0.8,0.2-1.5,0.5-2.2c0.3-0.7,0.8-1.3,1.4-1.8c0.6-0.5,1.3-0.9,2.1-1.2c0.8-0.3,1.7-0.4,2.7-0.4c0.8,0,1.5,0.1,2.1,0.2
		c0.7,0.1,1.3,0.3,1.8,0.5c0.6,0.2,1.1,0.5,1.7,0.8c0.5,0.3,1.1,0.7,1.6,1.1l-1,1.2c-1-0.9-2-1.5-3-1.8c-1-0.4-2.1-0.5-3.3-0.5
		c-0.8,0-1.5,0.1-2.1,0.3c-0.6,0.2-1.2,0.5-1.6,0.9c-0.5,0.4-0.8,0.8-1,1.3c-0.2,0.5-0.4,1-0.4,1.5v0.1c0,0.6,0.1,1.1,0.3,1.5
		c0.2,0.4,0.5,0.9,0.9,1.2c0.4,0.4,1.1,0.7,1.9,1c0.8,0.3,1.8,0.6,3.1,0.8c2.4,0.5,4.2,1.2,5.3,2.1c1.1,0.9,1.6,2.1,1.6,3.7v0.1
		c0,0.8-0.2,1.6-0.5,2.3c-0.4,0.7-0.8,1.3-1.4,1.8c-0.6,0.5-1.3,0.9-2.2,1.2C165.8,174.7,164.8,174.8,163.8,174.8z"/>
	<path fill="#FFFFFF" d="M183.4,153.4h1.5l9.8,21.1H193l-2.7-5.9H178l-2.7,5.9h-1.6L183.4,153.4z M189.7,167.2l-5.5-12.2l-5.6,12.2
		H189.7z"/>
	<path fill="#FFFFFF" d="M199.2,153.5h1.5l8.4,12.4l8.4-12.4h1.5v21h-1.6v-18.2l-8.3,12.1H209l-8.3-12.1v18.2h-1.5V153.5z"/>
	<path fill="#FFFFFF" d="M243.7,174.9c-1.5,0-2.9-0.3-4.2-0.8c-1.3-0.6-2.4-1.3-3.3-2.3c-0.9-1-1.7-2.1-2.2-3.4
		c-0.5-1.3-0.8-2.7-0.8-4.2V164c0-1.5,0.3-2.9,0.8-4.2c0.5-1.3,1.3-2.5,2.2-3.5c0.9-1,2-1.8,3.3-2.3c1.3-0.6,2.7-0.9,4.2-0.9
		c0.9,0,1.8,0.1,2.5,0.2c0.8,0.2,1.5,0.4,2.1,0.7c0.6,0.3,1.3,0.7,1.8,1.1c0.6,0.4,1.1,0.9,1.7,1.4l-1.1,1.1
		c-0.5-0.4-0.9-0.8-1.4-1.2c-0.5-0.4-1-0.7-1.6-1c-0.6-0.3-1.2-0.5-1.9-0.6c-0.7-0.2-1.4-0.2-2.2-0.2c-1.3,0-2.4,0.2-3.5,0.7
		c-1.1,0.5-2,1.1-2.8,2c-0.8,0.9-1.4,1.8-1.9,3c-0.5,1.1-0.7,2.4-0.7,3.7v0.1c0,1.3,0.2,2.6,0.7,3.7c0.5,1.2,1.1,2.1,1.9,3
		c0.8,0.9,1.7,1.5,2.8,2c1.1,0.5,2.2,0.7,3.5,0.7c1.5,0,2.8-0.3,4-0.9c1.1-0.6,2.2-1.4,3.3-2.4l1,1c-0.6,0.5-1.1,1-1.7,1.5
		c-0.6,0.5-1.2,0.8-1.9,1.2c-0.7,0.3-1.4,0.6-2.2,0.8C245.5,174.8,244.7,174.9,243.7,174.9z"/>
	<path fill="#FFFFFF" d="M256.3,153.5h8.8c1.3,0,2.4,0.2,3.4,0.6c1,0.4,1.8,0.9,2.5,1.5c0.5,0.5,0.9,1.1,1.2,1.8
		c0.3,0.7,0.4,1.4,0.4,2.1v0.1c0,0.9-0.2,1.7-0.5,2.4c-0.3,0.7-0.7,1.3-1.3,1.8c-0.5,0.5-1.2,0.9-1.9,1.2c-0.8,0.3-1.6,0.5-2.4,0.6
		l6.9,9h-2l-6.7-8.7h-0.1h-6.8v8.7h-1.6V153.5z M265,164.4c0.9,0,1.7-0.1,2.4-0.3c0.8-0.2,1.4-0.5,1.9-0.9c0.5-0.4,1-0.9,1.3-1.5
		c0.3-0.6,0.5-1.3,0.5-2v-0.1c0-1.4-0.5-2.5-1.6-3.4c-1-0.8-2.5-1.2-4.5-1.2h-7.2v9.5H265z"/>
	<path fill="#FFFFFF" d="M278.2,153.5h1.6v21h-1.6V153.5z"/>
	<path fill="#FFFFFF" d="M292.1,154.9h-7.3v-1.4H301v1.4h-7.3v19.6h-1.6V154.9z"/>
	<path fill="#FFFFFF" d="M305.7,153.5h14.9v1.4h-13.4v8.3h12v1.4h-12v8.5h13.5v1.4h-15.1V153.5z"/>
	<path fill="#FFFFFF" d="M325.8,153.5h8.8c1.3,0,2.4,0.2,3.4,0.6c1,0.4,1.8,0.9,2.5,1.5c0.5,0.5,0.9,1.1,1.2,1.8
		c0.3,0.7,0.4,1.4,0.4,2.1v0.1c0,0.9-0.2,1.7-0.5,2.4c-0.3,0.7-0.7,1.3-1.3,1.8c-0.5,0.5-1.2,0.9-1.9,1.2c-0.8,0.3-1.6,0.5-2.4,0.6
		l6.9,9h-2l-6.7-8.7h-0.1h-6.8v8.7h-1.6V153.5z M334.4,164.4c0.9,0,1.7-0.1,2.4-0.3c0.8-0.2,1.4-0.5,1.9-0.9c0.5-0.4,1-0.9,1.3-1.5
		c0.3-0.6,0.5-1.3,0.5-2v-0.1c0-1.4-0.5-2.5-1.6-3.4c-1-0.8-2.5-1.2-4.5-1.2h-7.2v9.5H334.4z"/>
	<path fill="#FFFFFF" d="M347.7,153.5h1.6v21h-1.6V153.5z"/>
	<path fill="#FFFFFF" d="M363.7,153.4h1.5l9.8,21.1h-1.7l-2.7-5.9h-12.4l-2.7,5.9h-1.6L363.7,153.4z M369.9,167.2l-5.5-12.2
		l-5.6,12.2H369.9z"/>
	<path fill="#FFFFFF" d="M388.4,153.5h7c1.7,0,3.2,0.3,4.5,0.8c1.4,0.5,2.5,1.3,3.5,2.2c1,0.9,1.8,2,2.3,3.3
		c0.5,1.3,0.8,2.6,0.8,4.1v0.1c0,1.5-0.3,2.9-0.8,4.1c-0.5,1.3-1.3,2.4-2.3,3.3c-1,0.9-2.2,1.7-3.5,2.2c-1.4,0.5-2.9,0.8-4.5,0.8h-7
		V153.5z M395.4,173.1c1.5,0,2.8-0.2,4-0.7c1.2-0.5,2.2-1.1,3-1.9c0.8-0.8,1.5-1.8,1.9-2.9c0.4-1.1,0.7-2.3,0.7-3.5V164
		c0-1.2-0.2-2.4-0.7-3.5c-0.4-1.1-1.1-2.1-1.9-2.9c-0.8-0.8-1.8-1.5-3-2c-1.2-0.5-2.5-0.7-4-0.7H390v18.2H395.4z"/>
	<path fill="#FFFFFF" d="M411.9,153.5h14.9v1.4h-13.4v8.3h12v1.4h-12v8.5h13.5v1.4h-15.1V153.5z"/>
	<path fill="#FFFFFF" d="M441.5,174.9c-1.5,0-2.9-0.3-4.2-0.8c-1.3-0.6-2.4-1.3-3.3-2.3c-0.9-1-1.7-2.1-2.2-3.4
		c-0.5-1.3-0.8-2.7-0.8-4.2V164c0-1.5,0.3-2.9,0.8-4.2c0.5-1.3,1.3-2.5,2.2-3.5s2-1.8,3.3-2.3c1.3-0.6,2.7-0.9,4.2-0.9
		c0.9,0,1.8,0.1,2.5,0.2c0.8,0.2,1.5,0.4,2.1,0.7c0.7,0.3,1.3,0.7,1.8,1.1c0.6,0.4,1.1,0.9,1.7,1.4l-1.1,1.1
		c-0.5-0.4-0.9-0.8-1.4-1.2c-0.5-0.4-1-0.7-1.6-1c-0.6-0.3-1.2-0.5-1.9-0.6c-0.7-0.2-1.4-0.2-2.2-0.2c-1.3,0-2.4,0.2-3.5,0.7
		c-1.1,0.5-2,1.1-2.8,2c-0.8,0.9-1.4,1.8-1.9,3c-0.5,1.1-0.7,2.4-0.7,3.7v0.1c0,1.3,0.2,2.6,0.7,3.7c0.5,1.2,1.1,2.1,1.9,3
		c0.8,0.9,1.7,1.5,2.8,2c1.1,0.5,2.2,0.7,3.5,0.7c1.5,0,2.8-0.3,4-0.9c1.1-0.6,2.2-1.4,3.3-2.4l1.1,1c-0.6,0.5-1.1,1-1.7,1.5
		c-0.6,0.5-1.2,0.8-1.9,1.2c-0.7,0.3-1.4,0.6-2.2,0.8C443.3,174.8,442.4,174.9,441.5,174.9z"/>
	<path fill="#FFFFFF" d="M454.3,153.5h1.6v21h-1.6V153.5z"/>
	<path fill="#FFFFFF" d="M469.4,174.8c-1.7,0-3.2-0.3-4.5-0.8c-1.3-0.6-2.7-1.4-3.9-2.5l1-1.2c0.6,0.5,1.2,1,1.7,1.4
		c0.6,0.4,1.2,0.7,1.8,1c0.6,0.3,1.2,0.4,1.9,0.6c0.7,0.1,1.4,0.2,2.2,0.2s1.5-0.1,2.2-0.3c0.7-0.2,1.2-0.5,1.7-0.9
		c0.5-0.4,0.8-0.8,1.1-1.3c0.3-0.5,0.4-1.1,0.4-1.7v-0.1c0-0.6-0.1-1.1-0.3-1.5c-0.2-0.4-0.5-0.8-0.9-1.2c-0.4-0.4-1.1-0.7-1.8-1
		c-0.8-0.3-1.7-0.6-2.9-0.8c-1.3-0.3-2.3-0.6-3.2-0.9c-0.9-0.3-1.6-0.8-2.2-1.2c-0.6-0.5-1-1-1.3-1.6c-0.3-0.6-0.4-1.3-0.4-2.1v-0.1
		c0-0.8,0.2-1.5,0.5-2.2c0.3-0.7,0.8-1.3,1.4-1.8c0.6-0.5,1.3-0.9,2.1-1.2c0.8-0.3,1.7-0.4,2.7-0.4c0.8,0,1.5,0.1,2.1,0.2
		c0.7,0.1,1.3,0.3,1.8,0.5c0.6,0.2,1.1,0.5,1.7,0.8c0.5,0.3,1.1,0.7,1.6,1.1l-1,1.2c-1-0.9-2-1.5-3-1.8c-1-0.4-2.1-0.5-3.3-0.5
		c-0.8,0-1.5,0.1-2.1,0.3c-0.6,0.2-1.2,0.5-1.6,0.9c-0.5,0.4-0.8,0.8-1,1.3c-0.2,0.5-0.4,1-0.4,1.5v0.1c0,0.6,0.1,1.1,0.3,1.5
		c0.2,0.4,0.5,0.9,0.9,1.2c0.4,0.4,1.1,0.7,1.9,1c0.8,0.3,1.8,0.6,3.1,0.8c2.4,0.5,4.2,1.2,5.3,2.1c1.1,0.9,1.6,2.1,1.6,3.7v0.1
		c0,0.8-0.2,1.6-0.5,2.3c-0.4,0.7-0.8,1.3-1.4,1.8c-0.6,0.5-1.3,0.9-2.2,1.2S470.4,174.8,469.4,174.8z"/>
	<path fill="#FFFFFF" d="M481.7,153.5h1.6v21h-1.6V153.5z"/>
	<path fill="#FFFFFF" d="M499.3,174.9c-1.6,0-3-0.3-4.3-0.9c-1.3-0.6-2.4-1.4-3.3-2.4c-0.9-1-1.6-2.1-2.1-3.4
		c-0.5-1.3-0.8-2.7-0.8-4.1V164c0-1.4,0.3-2.8,0.8-4.1c0.5-1.3,1.2-2.5,2.1-3.5c0.9-1,2-1.8,3.3-2.4c1.3-0.6,2.8-0.9,4.3-0.9
		c1.6,0,3,0.3,4.3,0.9c1.3,0.6,2.4,1.4,3.3,2.4c0.9,1,1.6,2.1,2.1,3.4s0.8,2.7,0.8,4.1c0,0,0,0,0,0.1c0,1.4-0.3,2.8-0.8,4.1
		c-0.5,1.3-1.2,2.5-2.1,3.5c-0.9,1-2,1.8-3.3,2.4C502.4,174.6,500.9,174.9,499.3,174.9z M499.4,173.5c1.3,0,2.5-0.2,3.6-0.7
		c1.1-0.5,2-1.2,2.8-2c0.8-0.9,1.4-1.8,1.8-3c0.4-1.1,0.7-2.4,0.7-3.7V164c0-1.3-0.2-2.5-0.7-3.7c-0.4-1.2-1.1-2.2-1.9-3
		c-0.8-0.8-1.7-1.5-2.8-2c-1.1-0.5-2.3-0.8-3.6-0.8c-1.3,0-2.5,0.2-3.6,0.7c-1.1,0.5-2,1.2-2.8,2c-0.8,0.9-1.4,1.8-1.8,3
		c-0.4,1.1-0.7,2.4-0.7,3.7v0.1c0,1.3,0.2,2.5,0.7,3.7c0.4,1.2,1.1,2.2,1.9,3c0.8,0.9,1.7,1.5,2.8,2
		C496.9,173.2,498.1,173.5,499.4,173.5z"/>
	<path fill="#FFFFFF" d="M515.2,153.5h1.5l14.5,18.3v-18.3h1.5v21h-1.2l-14.8-18.7v18.7h-1.5V153.5z"/>
	<path fill="#FFFFFF" d="M547.9,153.5h14.9v1.4h-13.4v8.3h12v1.4h-12v8.5H563v1.4h-15.1V153.5z"/>
	<path fill="#FFFFFF" d="M568,153.5h1.5l14.5,18.3v-18.3h1.5v21h-1.2l-14.8-18.7v18.7H568V153.5z"/>
	<path fill="#FFFFFF" d="M601.4,174.9c-1.7,0-3.1-0.3-4.5-0.9s-2.4-1.3-3.3-2.3c-0.9-1-1.6-2.1-2.1-3.4c-0.5-1.3-0.7-2.7-0.7-4.2
		V164c0-1.4,0.2-2.8,0.7-4.1c0.5-1.3,1.2-2.5,2.1-3.5c0.9-1,2-1.8,3.3-2.4c1.3-0.6,2.7-0.9,4.3-0.9c0.9,0,1.6,0.1,2.4,0.2
		c0.7,0.1,1.4,0.3,2,0.5c0.6,0.2,1.2,0.5,1.7,0.9c0.6,0.3,1.1,0.7,1.6,1.2l-1,1.2c-0.4-0.4-0.9-0.7-1.3-1c-0.5-0.3-0.9-0.6-1.5-0.8
		c-0.5-0.2-1.1-0.4-1.8-0.5c-0.7-0.1-1.4-0.2-2.2-0.2c-1.3,0-2.4,0.2-3.5,0.7c-1.1,0.5-2,1.2-2.7,2c-0.8,0.9-1.4,1.9-1.8,3
		c-0.4,1.1-0.6,2.3-0.6,3.6v0.1c0,1.4,0.2,2.6,0.6,3.8c0.4,1.2,1,2.2,1.8,3c0.8,0.8,1.7,1.5,2.8,2c1.1,0.5,2.4,0.7,3.8,0.7
		c0.7,0,1.3-0.1,2-0.2c0.6-0.1,1.2-0.3,1.8-0.5c0.6-0.2,1.1-0.5,1.6-0.8c0.5-0.3,0.9-0.6,1.3-0.9v-6h-7v-1.4h8.5v8.1
		c-1,0.8-2.1,1.6-3.6,2.2C604.7,174.6,603.1,174.9,601.4,174.9z"/>
	<path fill="#FFFFFF" d="M615.5,153.5h1.6v21h-1.6V153.5z"/>
	<path fill="#FFFFFF" d="M623.5,153.5h1.5l14.5,18.3v-18.3h1.5v21h-1.2l-14.8-18.7v18.7h-1.5V153.5z"/>
	<path fill="#FFFFFF" d="M647.2,153.5h14.9v1.4h-13.4v8.3h12v1.4h-12v8.5h13.5v1.4h-15.1V153.5z"/>
</g>
<g>
	<path fill="#FFFFFF" d="M687.9,62.8h-2.5v-0.9h6v0.9H689V70h-1.1V62.8z"/>
	<path fill="#FFFFFF" d="M699.2,66.5c-0.1-1.1-0.1-2.5-0.1-3.5h0c-0.3,0.9-0.6,2-1,3.1l-1.4,3.9h-0.8l-1.3-3.8
		c-0.4-1.1-0.7-2.2-0.9-3.1h0c0,1-0.1,2.4-0.2,3.6l-0.2,3.5h-1l0.6-8.1h1.3l1.4,3.9c0.3,1,0.6,1.9,0.8,2.7h0
		c0.2-0.8,0.5-1.7,0.9-2.7l1.4-3.9h1.3l0.5,8.1h-1L699.2,66.5z"/>
</g>
</svg>
